HIERARCHY
ROOT hips
{
  OFFSET 0 10.680822821525009 1.3929502295107734
  CHANNELS 6 Xposition Yposition Zposition Yrotation Xrotation Zrotation
  JOINT spine
  {
    OFFSET -7.042017322922631e-31 0.6058489940359625 0
    CHANNELS 3 Yrotation Xrotation Zrotation
    JOINT chest
    {
      OFFSET 0 1.2699794144455032 0
      CHANNELS 3 Yrotation Xrotation Zrotation
      JOINT upperChest
      {
        OFFSET 0 1.217799211677689 0
        CHANNELS 3 Yrotation Xrotation Zrotation
        JOINT neck
        {
          OFFSET 0 1.5248826104153006 0
          CHANNELS 3 Yrotation Xrotation Zrotation
          JOINT head
          {
            OFFSET 0 0.8197772727844447 0
            CHANNELS 3 Yrotation Xrotation Zrotation
            JOINT leftEye
            {
              OFFSET 0.2793952361220866 0.6769952096623495 0.1830357412467788
              CHANNELS 3 Yrotation Xrotation Zrotation
              End Site
              {
                OFFSET 0.2793952361220866 0.6769952096623495 0.1830357412467788
              }
            }
            JOINT rightEye
            {
              OFFSET -0.27939522230689573 0.676995205357064 0.18303631459760622
              CHANNELS 3 Yrotation Xrotation Zrotation
              End Site
              {
                OFFSET -0.27939522230689573 0.676995205357064 0.18303631459760622
              }
            }
          }
        }
        JOINT leftShoulder
        {
          OFFSET 0.41486978509200423 1.1670505408695453 0
          CHANNELS 3 Yrotation Xrotation Zrotation
          JOINT leftUpperArm
          {
            OFFSET 0.9737926108153417 0 0
            CHANNELS 3 Yrotation Xrotation Zrotation
            JOINT leftLowerArm
            {
              OFFSET 2.5269332222665284 0 0
              CHANNELS 3 Yrotation Xrotation Zrotation
              JOINT leftHand
              {
                OFFSET 2.4263782738425914 0 0
                CHANNELS 3 Yrotation Xrotation Zrotation
                JOINT leftIndexProximal
                {
                  OFFSET 0.724320348022514 0.08170607082582437 0.20360061616140124
                  CHANNELS 3 Yrotation Xrotation Zrotation
                  JOINT leftIndexIntermediate
                  {
                    OFFSET 0.36548960630744587 -0.010566596513783999 -0.01414783573280308
                    CHANNELS 3 Yrotation Xrotation Zrotation
                    JOINT leftIndexDistal
                    {
                      OFFSET 0.22502819650693362 -0.007863819831430696 -0.007567681939621526
                      CHANNELS 3 Yrotation Xrotation Zrotation
                      End Site
                      {
                        OFFSET 0.22502819650693362 -0.007863819831430696 -0.007567681939621526
                      }
                    }
                  }
                }
                JOINT leftLittleProximal
                {
                  OFFSET 0.6720322998298205 0.08170601055037707 -0.3230036039466837
                  CHANNELS 3 Yrotation Xrotation Zrotation
                  JOINT leftLittleIntermediate
                  {
                    OFFSET 0.34583592281688713 5.476543019078406e-8 1.3869203337180114e-7
                    CHANNELS 3 Yrotation Xrotation Zrotation
                    JOINT leftLittleDistal
                    {
                      OFFSET 0.19925728062053938 0.003098047439490381 0.0038303983709246925
                      CHANNELS 3 Yrotation Xrotation Zrotation
                      End Site
                      {
                        OFFSET 0.19925728062053938 0.003098047439490381 0.0038303983709246925
                      }
                    }
                  }
                }
                JOINT leftMiddleProximal
                {
                  OFFSET 0.7300436596551069 0.0817073395107144 0.022661722987926763
                  CHANNELS 3 Yrotation Xrotation Zrotation
                  JOINT leftMiddleIntermediate
                  {
                    OFFSET 0.40758254347686607 -0.0000012383587111308714 2.408460318820138e-7
                    CHANNELS 3 Yrotation Xrotation Zrotation
                    JOINT leftMiddleDistal
                    {
                      OFFSET 0.2514490105498507 0.0000013869132886590307 9.738618134136345e-8
                      CHANNELS 3 Yrotation Xrotation Zrotation
                      End Site
                      {
                        OFFSET 0.2514490105498507 0.0000013869132886590307 9.738618134136345e-8
                      }
                    }
                  }
                }
                JOINT leftRingProximal
                {
                  OFFSET 0.7217261161191838 0.08170601902187746 -0.15043395722184966
                  CHANNELS 3 Yrotation Xrotation Zrotation
                  JOINT leftRingIntermediate
                  {
                    OFFSET 0.37808807487521556 0.0000013754022405443322 2.2046919317952884e-7
                    CHANNELS 3 Yrotation Xrotation Zrotation
                    JOINT leftRingDistal
                    {
                      OFFSET 0.21812105442344254 -0.002713483731960231 -0.004991354517454624
                      CHANNELS 3 Yrotation Xrotation Zrotation
                      End Site
                      {
                        OFFSET 0.21812105442344254 -0.002713483731960231 -0.004991354517454624
                      }
                    }
                  }
                }
                JOINT leftThumbProximal
                {
                  OFFSET 0.10793587079521427 -0.1652791240518252 -0.07775251827190094
                  CHANNELS 3 Yrotation Xrotation Zrotation
                  JOINT leftThumbIntermediate
                  {
                    OFFSET 0.40355819082296684 -0.017484006740276614 0.3177776014416309
                    CHANNELS 3 Yrotation Xrotation Zrotation
                    JOINT leftThumbDistal
                    {
                      OFFSET 0.2318764658022603 -0.018510186824293617 0.21396001800186287
                      CHANNELS 3 Yrotation Xrotation Zrotation
                      End Site
                      {
                        OFFSET 0.2318764658022603 -0.018510186824293617 0.21396001800186287
                      }
                    }
                  }
                }
              }
            }
          }
        }
        JOINT rightShoulder
        {
          OFFSET -0.4148697850920044 1.1670505408695453 0
          CHANNELS 3 Yrotation Xrotation Zrotation
          JOINT rightUpperArm
          {
            OFFSET -0.9737926108153414 0 0
            CHANNELS 3 Yrotation Xrotation Zrotation
            JOINT rightLowerArm
            {
              OFFSET -2.5269332222665293 0 0
              CHANNELS 3 Yrotation Xrotation Zrotation
              JOINT rightHand
              {
                OFFSET -2.42637827384259 0 0
                CHANNELS 3 Yrotation Xrotation Zrotation
                JOINT rightIndexProximal
                {
                  OFFSET -0.724320348022514 0.08170607082582437 0.20360061616140124
                  CHANNELS 3 Yrotation Xrotation Zrotation
                  JOINT rightIndexIntermediate
                  {
                    OFFSET -0.36548960630744587 -0.010566596513783999 -0.01414783573280308
                    CHANNELS 3 Yrotation Xrotation Zrotation
                    JOINT rightIndexDistal
                    {
                      OFFSET -0.22502819650693362 -0.007863819831430696 -0.007567681939621526
                      CHANNELS 3 Yrotation Xrotation Zrotation
                      End Site
                      {
                        OFFSET -0.22502819650693362 -0.007863819831430696 -0.007567681939621526
                      }
                    }
                  }
                }
                JOINT rightLittleProximal
                {
                  OFFSET -0.6720322998298205 0.08170601055037707 -0.3230036039466837
                  CHANNELS 3 Yrotation Xrotation Zrotation
                  JOINT rightLittleIntermediate
                  {
                    OFFSET -0.34583592281688713 5.476543019078406e-8 1.3869203337180114e-7
                    CHANNELS 3 Yrotation Xrotation Zrotation
                    JOINT rightLittleDistal
                    {
                      OFFSET -0.19925728062053938 0.003098047439490381 0.0038303983709246925
                      CHANNELS 3 Yrotation Xrotation Zrotation
                      End Site
                      {
                        OFFSET -0.19925728062053938 0.003098047439490381 0.0038303983709246925
                      }
                    }
                  }
                }
                JOINT rightMiddleProximal
                {
                  OFFSET -0.7300436596551069 0.0817073395107144 0.022661722987926763
                  CHANNELS 3 Yrotation Xrotation Zrotation
                  JOINT rightMiddleIntermediate
                  {
                    OFFSET -0.40758254347686607 -0.0000012383587111308714 2.408460318820138e-7
                    CHANNELS 3 Yrotation Xrotation Zrotation
                    JOINT rightMiddleDistal
                    {
                      OFFSET -0.2514490105498507 0.0000013869132886590307 9.738618134136345e-8
                      CHANNELS 3 Yrotation Xrotation Zrotation
                      End Site
                      {
                        OFFSET -0.2514490105498507 0.0000013869132886590307 9.738618134136345e-8
                      }
                    }
                  }
                }
                JOINT rightRingProximal
                {
                  OFFSET -0.7217261161191838 0.08170601902187746 -0.15043395722184966
                  CHANNELS 3 Yrotation Xrotation Zrotation
                  JOINT rightRingIntermediate
                  {
                    OFFSET -0.37808807487521556 0.0000013754022405443322 2.2046919317952884e-7
                    CHANNELS 3 Yrotation Xrotation Zrotation
                    JOINT rightRingDistal
                    {
                      OFFSET -0.21812105442344254 -0.002713483731960231 -0.004991354517454624
                      CHANNELS 3 Yrotation Xrotation Zrotation
                      End Site
                      {
                        OFFSET -0.21812105442344254 -0.002713483731960231 -0.004991354517454624
                      }
                    }
                  }
                }
                JOINT rightThumbProximal
                {
                  OFFSET -0.10793587079521427 -0.1652791240518252 -0.07775251827190094
                  CHANNELS 3 Yrotation Xrotation Zrotation
                  JOINT rightThumbIntermediate
                  {
                    OFFSET -0.40355819082296684 -0.017484006740276614 0.3177776014416309
                    CHANNELS 3 Yrotation Xrotation Zrotation
                    JOINT rightThumbDistal
                    {
                      OFFSET -0.2318764658022603 -0.018510186824293617 0.21396001800186287
                      CHANNELS 3 Yrotation Xrotation Zrotation
                      End Site
                      {
                        OFFSET -0.2318764658022603 -0.018510186824293617 0.21396001800186287
                      }
                    }
                  }
                }
              }
            }
          }
        }
      }
    }
  }
  JOINT leftUpperLeg
  {
    OFFSET 0.8486251390888677 -0.4421577294694363 0
    CHANNELS 3 Yrotation Xrotation Zrotation
    JOINT leftLowerLeg
    {
      OFFSET 0 -4.10147812638609 0
      CHANNELS 3 Yrotation Xrotation Zrotation
      JOINT leftFoot
      {
        OFFSET -0.0002543926476658853 -4.77292286812444 0.007402811231737388
        CHANNELS 3 Yrotation Xrotation Zrotation
        JOINT leftToes
        {
          OFFSET 0 -0.7027875951174846 1.2062924140498823
          CHANNELS 3 Yrotation Xrotation Zrotation
          End Site
          {
            OFFSET 0 -0.7027875951174846 1.2062924140498823
          }
        }
      }
    }
  }
  JOINT rightUpperLeg
  {
    OFFSET -0.8486251390888677 -0.4421577294694363 0
    CHANNELS 3 Yrotation Xrotation Zrotation
    JOINT rightLowerLeg
    {
      OFFSET 0 -4.10147812638609 0
      CHANNELS 3 Yrotation Xrotation Zrotation
      JOINT rightFoot
      {
        OFFSET 0.0002543926476658853 -4.77292286812444 0.007402811231737388
        CHANNELS 3 Yrotation Xrotation Zrotation
        JOINT rightToes
        {
          OFFSET 0 -0.7027875951174846 1.2062924140498823
          CHANNELS 3 Yrotation Xrotation Zrotation
          End Site
          {
            OFFSET 0 -0.7027875951174846 1.2062924140498823
          }
        }
      }
    }
  }
}
MOTION
Frames: 4
Frame Time: 0.03333333333333333
1.6387202739715576 -0.3518633564981535 0.24594292044639587 -18.40116971803815 -1.4460488492236718 3.974513556585016 0.18030099594975224 -4.572008029551116 -6.219457945113435 -1.8293693952579455 2.0931311351698745 -3.4207868219908564 0 0 0 0.8163371444198747 6.370574076762984 3.2233576075714847 2.1722354883997377 -11.601171518630148 1.123086471593599 0 0 0 0 0 0 -7.470358951708366 0.5076457242380288 -11.549334324390117 -0.01586438331044596 7.613155356187495 -56.255209058391245 -22.383229522990206 -3.394965747521563 0.9643644835645826 -6.27186651132039 16.1378010082513 -9.506682786885326 -0.15441677454312028 -0.38080044388470113 -11.309608305366076 1.4664125118303297 0.17570379685819337 -13.646609755271989 1.775538643382085 0.26330599996289794 -16.80990273651493 5.758106483709006 1.2134676310325954 -13.037148365847859 -2.5598325508955204 0.2437947864895674 -14.857339312517375 1.2554103400669117 0.1732419824959497 -11.862517694057054 -0.0009140079610334191 -0.11061039995058088 -5.0334802008782065 1.592170610658133 0.20815982437016742 -14.942234820437244 1.9058026590883301 0.30154549274725695 -17.981376498358124 -0.028469053299997812 -0.33387463624629904 -11.274254846059792 1.7741521390870767 0.261002067662249 -16.72331626903756 2.6642916440393485 0.6056438854455771 -25.59674308211747 17.046979202343024 0.4979604632169543 11.66618379341437 15.58993121548774 6.392017552286634 1.9278710742102068 14.956427894085133 -3.879520405485748 -4.791476102590269 5.886530890360213 0.5158201858935535 10.318191589804343 7.164721535397135 8.624270652756271 60.38358880588805 28.047925102950124 -4.171122882216897 -1.4112402727803732 6.448868607132688 16.30073475299377 2.56483640483015 -3.329526894876138 1.0487293043653332 22.271785880060733 -1.1210064670319018 0.1050995080815515 10.632279894927468 -1.7501500877900777 0.2476734357966085 16.208159401771614 -1.9680901012847578 0.37404091790960625 15.50760053702801 -1.514188238198198 0.17007794986311262 14.927688846058095 -2.4736778016719825 0.44591022636099265 22.73174401421819 -1.2737835271096007 0.07701660261391371 13.955534731017522 -1.427957380661243 0.17942227908920402 14.151278412649775 -5.153590011067013 -2.613710552648224 26.520821044410884 -2.2516701097212413 0.43735033098243853 20.435165538555687 -1.2810141139078182 0.12930907771561623 11.62260197050836 -7.9545436965162715 -10.072482114104996 20.25244108152634 -8.977725874490353 -1.444356985453845 -14.467794569704532 -21.882414453667288 5.84845650122084 -5.870104042682196 6.5266487400019795 -3.355292507587759 2.2352612081703596 3.5422580191476616 -10.983268226411292 -9.413260852045434 10.452270408389627 22.855367718573362 3.0320258280519465 15.38651524220417 -12.023153812311092 1.3123470017690682 3.9843193740745767e-7 -0.5174342038623532 -0.0000027242354897189256 -9.665604712939421 -16.49169311603347 -11.638024469933162 2.247316204570119 26.453390600246866 -0.44612582317369454 3.668646119920614 -9.819880408829524 7.7642776031319585 -0.0000011825456906401886 -0.4693825735161517 -0.0000018353503394542695
1.6388217210769653 -0.352000685599716 0.2457391768693924 -18.395514462612187 -1.4726863695381747 3.9809904185946725 0.1912264657083668 -4.634369455768638 -6.224166985909519 -1.832357078114988 2.328469885088069 -3.4305552816912206 0 0 0 0.8156621455910356 6.347016968227679 3.2221387269391877 2.133341419811432 -11.725925942816724 1.1411382714124305 0 0 0 0 0 0 -7.532451924078947 0.5036597801069069 -11.624283058728096 -0.12300758425167894 7.50815208138758 -56.11640896593673 -22.449819449204554 -3.4043205728784605 0.9691909300286304 -6.2431501738250486 16.225000440965587 -9.616940788119987 -0.15620340467968186 -0.3805225611104176 -11.28889885181316 1.4636940990930691 0.1750465614945472 -13.62062662577347 1.771371231358881 0.26204546996847544 -16.76924942414318 5.759444791747549 1.2127970549720473 -13.017667513527467 -2.5629699688836673 0.2428239837395948 -14.82710617193643 1.2504042285028267 0.172018839474134 -11.814549699832726 -0.0009065627534347992 -0.10998212143441399 -5.0112500130861095 1.5896871065534883 0.20748165682970526 -14.91793153351615 1.9023536456244747 0.3004494723852418 -17.94781609975622 -0.03401102061682733 -0.3348730348055845 -11.250012633252817 1.772708778139219 0.2605598883746768 -16.7093558621987 2.6622106095820968 0.6046615640751767 -25.575413599661047 17.0471081315638 0.4989775062012973 11.66010832285769 15.59972930622783 6.3921571583929095 1.9270175645414038 14.952731126168166 -3.869990999350155 -4.8110555101750565 5.9393076759506025 0.5135986305864494 10.345097941180278 7.2291331918927035 8.468515185851887 60.28978525859928 28.031447632029582 -4.168929708045449 -1.4098606569184533 6.4174765650221035 16.34200268056381 2.5593517526937744 -3.329547354282406 1.0487051812190635 22.26042883775881 -1.1199406520915365 0.10488625107492035 10.622297135700975 -1.7471675796464772 0.2468226957978415 16.179583659463564 -1.9688827950358927 0.3746273928800546 15.489559406492607 -1.5122855461614533 0.16966202686727822 14.909852886483687 -2.4719394016657485 0.4452007190082008 22.714552395803455 -1.2774949052156528 0.07893191883099179 13.94043676937854 -1.4254630583104566 0.17881178792832472 14.127584419056623 -5.152873095484822 -2.6222206723351382 26.489717238502855 -2.2537404628700046 0.4388606740348097 20.41611649387322 -1.2793703797793416 0.12898547000118035 11.607134049970528 -7.9501106548670055 -10.075331544135066 20.23567170661089 -8.975252279942904 -1.4450687253149948 -14.467947982024773 -21.875376754629073 5.844727886112205 -5.86872525229831 6.539875350746573 -3.3646448122845323 2.235589463452305 3.5402253396284213 -10.958531397542748 -9.419417096715177 10.447959061490405 22.86030984501041 3.0319075688171035 15.386602707262341 -12.025725454316348 1.3124130100737146 0.00000765256004683877 -0.517492583016303 0.0000014509459637150408 -9.67289274684951 -16.472794321738956 -11.64657934875865 2.2526872053154405 26.46594093054664 -0.451587504310804 3.668975696929098 -9.827936930696533 7.767769123796412 -0.000007267349296831194 -0.46690990913820163 8.053843021448812e-7
1.6392579078674316 -0.35228774156895426 0.245457261800766 -18.401012896827243 -1.5279253601463614 3.9967172226591536 0.2153907214967966 -4.757501672589135 -6.234151856332792 -1.8279700984087008 2.7762676855666264 -3.4507535824010955 0 0 0 0.8116834180906091 6.309344325950813 3.2180155439570344 2.057939751025655 -11.958772992278908 1.1393652067614009 0 0 0 0 0 0 -7.647238979945844 0.49597600517103546 -11.767026506313675 -0.3187938967327573 7.326127522043841 -55.85524028251551 -22.586908785302658 -3.423624929815769 0.9791231741858196 -6.182004933807343 16.37302786474093 -9.84774698060258 -0.15966288393924258 -0.38000028026026 -11.248618212808955 1.4584084111009061 0.17374615148564782 -13.570007766347855 1.7632131636329262 0.2595977822851442 -16.69014828377534 5.762069234166515 1.211423239206327 -12.979774319974796 -2.5690372973171436 0.24099766559052785 -14.768186318021408 1.2406203064229138 0.1696412293836942 -11.721156257130378 -0.0009284864410441686 -0.10884045723513947 -4.967983737163637 1.584742063256706 0.20621827704343057 -14.87056303961184 1.8956715225979963 0.2982732803786883 -17.88256760657998 -0.04479742467162509 -0.33682535518997697 -11.202732397871866 1.7699336331290725 0.2597363084818708 -16.682170067725185 2.658157550390447 0.602715225652536 -25.53386631593311 17.045416004804256 0.5005607829372858 11.64839021748833 15.617748820129608 6.392109477533865 1.9252889968787297 14.944925216964872 -3.8517582648482716 -4.848942516221456 6.035133152023456 0.5101867082046406 10.385557639611463 7.371858125848506 8.197570330349354 60.09202621488333 28.025459738581098 -4.168125460112166 -1.4093455274874374 6.400577246691211 16.505019362224747 2.6452780283623336 -3.329575684344349 1.0486771087083733 22.23821970987467 -1.1178334568341437 0.1045128445431615 10.602803429917286 -1.741325980160222 0.245120362181912 16.123678778655744 -1.970363111082665 0.3757719009924414 15.454332496874994 -1.508579362732364 0.16876557396939793 14.874959055620284 -2.4685500355258223 0.4438267957807016 22.680884546190555 -1.284775681516321 0.08272751342533273 13.910853748899102 -1.420575897138522 0.1776215416663325 14.081293951402833 -5.151527999985375 -2.6389383151311954 26.428827756979135 -2.2578391545487806 0.4418773055100495 20.378918885009956 -1.276167947989637 0.128322166247141 11.576926468096053 -7.941393775355134 -10.080916881592124 20.202896180579575 -8.970414886936009 -1.4464463007452075 -14.468215886678271 -21.861585015214118 5.8374260689121105 -5.866125333558754 6.565725080042539 -3.383005233522621 2.23620379654827 3.5284811205621405 -10.906995437202458 -9.443295527132538 10.435918791443997 22.865105751073884 3.0393306008406915 15.431772310006009 -12.028162688306704 1.3040065143815105 0.0000020954785416991483 -0.5175973346439786 -0.0000012520905684097479 -9.68881510983859 -16.437311306491896 -11.662520882500612 2.2913592041621977 26.490757611141017 -0.4599317186083747 3.6651988801773876 -9.843202229800138 7.776854776218033 0.000007975345131518602 -0.45778383894023705 -0.0000036576761670260986
1.639708161354065 -0.3528732975992277 0.2447446584701538 -18.41969995807692 -1.5995814188092157 4.01944897167004 0.2448077418509883 -4.941366096170503 -6.253139441804041 -1.8324168425013525 3.374253142156841 -3.4867738875785315 0 0 0 0.8161142543299733 6.259763995312734 3.210845672700283 2.006484967346801 -12.196971567772577 1.1337566175002642 0 0 0 0 0 0 -7.800310517145291 0.4858327485792395 -11.923033137490028 -0.4969276542292741 7.120235775972817 -55.5932858357418 -22.75558404670226 -3.4473362813052906 0.9913929846047279 -6.170713101081134 16.61310226751641 -10.109318686941277 -0.16456847753745715 -0.3792292256927443 -11.191015930360019 1.450833029968207 0.17189977753489444 -13.497726331088023 1.7515556608754221 0.2561340408828085 -16.577027668866265 5.765951001057454 1.2095367254983387 -12.92554969688167 -2.577728881660936 0.2384181527062095 -14.684015079174136 1.2266437216584747 0.1662773334232009 -11.587628450436357 -0.0008708482273313808 -0.1071172721525854 -4.906164831969718 1.5776923070533249 0.2043462062256755 -14.802884398557396 1.8861063924859687 0.2951573649938684 -17.789239861592385 -0.06018150493707325 -0.33959664600580575 -11.135219481844732 1.765914388734546 0.2585190549371827 -16.64334929182534 2.6523827905451256 0.5999661899098638 -25.474497284287928 17.041063680008 0.5022055341191951 11.632365185530018 15.640535545413002 6.391106032738608 1.9221898043873522 14.932282991752501 -3.826590168112494 -4.90242220562109 6.146941639357577 0.5079894883543464 10.418246868725303 7.632899649951947 7.867148488711342 59.823653626072506 28.04758027221696 -4.17103214186827 -1.4112855674995635 6.336056626297845 16.71822041905442 2.7425560373094964 -3.329665179503232 1.0486356937500958 22.206196280865328 -1.1148369311734088 0.10393283779307821 10.574569326989337 -1.7328883419553511 0.24268737873008425 16.043064241394884 -1.9725400094725989 0.37738967691239633 15.403582767016442 -1.5032507162239719 0.16747925171193792 14.824547775189092 -2.4636404432112955 0.441892567167858 22.632400819846016 -1.2953209538271853 0.08816668459257976 13.868216892952853 -1.4135197736551062 0.1758926684860378 14.01448605124189 -5.149512753822158 -2.6629909538125407 26.3409862256344 -2.2632626338245734 0.44588114381548033 20.325314180896765 -1.2715158762794563 0.12737024628245924 11.533331095403659 -7.928863582021803 -10.08896770756267 20.155658165509138 -8.963401542205112 -1.4484818130270813 -14.468537756635824 -21.841713263965282 5.826847270820947 -5.86231728103346 6.603119828585108 -3.409194201106492 2.2370518676951505 3.509134598425717 -10.848588609584409 -9.480124678820266 10.42252515532486 22.878877317342997 3.0541138097014993 15.531972895850586 -12.032172998904665 1.2838808089709128 0.00001056838328922789 -0.5177323964751855 0.000003334213186690067 -9.706517728418525 -16.401617615143056 -11.673819375900333 2.3499744832748726 26.53585111300826 -0.484354893703553 3.653445457367029 -9.86636971166176 7.794064852850466 0.00003696231720681493 -0.44167180675708695 -0.000004027294115863401
